<svg xmlns="http://www.w3.org/2000/svg" aria-hidden="true">
<defs>
<symbol id="icon-Menu" viewBox="0 0 47 32" fill="none">
<path d="M44.211 18.34h-41.263c-1.628 0-2.947-1.165-2.947-2.602s1.32-2.602 2.947-2.602h41.263c1.628 0 2.947 1.165 2.947 2.602s-1.32 2.602-2.947 2.602z"></path>
<path d="M2.947 25.278h41.263c1.628 0 2.947 1.165 2.947 2.602s-1.32 2.602-2.947 2.602h-41.263c-1.628 0-2.947-1.165-2.947-2.602s1.32-2.602 2.947-2.602z"></path>
<path d="M44.211 6.198h-41.263c-1.628 0-2.947-1.165-2.947-2.602s1.32-2.602 2.947-2.602h41.263c1.628 0 2.947 1.165 2.947 2.602s-1.32 2.602-2.947 2.602z"></path>
</symbol>
<symbol id="icon-angle-left" viewBox="0 0 32 32">
<path d="M32 9.107c0 0.002 0 0.004 0 0.006 0 0.366-0.148 0.698-0.387 0.939l-10.893 10.894c-1.207 1.209-2.876 1.957-4.72 1.957s-3.513-0.748-4.72-1.957l-10.893-10.894c-0.223-0.239-0.36-0.56-0.36-0.914 0-0.74 0.6-1.339 1.339-1.339 0.354 0 0.675 0.137 0.915 0.361l-0.001-0.001 10.893 10.893c0.724 0.723 1.723 1.17 2.827 1.17s2.103-0.447 2.827-1.17l10.893-10.893c0.242-0.244 0.577-0.395 0.947-0.395 0.736 0 1.333 0.597 1.333 1.333 0 0.003 0 0.007-0 0.010v-0.001z"></path>
</symbol>
</defs>
</svg>
