<svg xmlns="http://www.w3.org/2000/svg" aria-hidden="true">
<defs>
<symbol id="icon-Menu" viewBox="0 0 47 32" >
<path d="M44.211 18.34h-41.263c-1.628 0-2.947-1.165-2.947-2.602s1.32-2.602 2.947-2.602h41.263c1.628 0 2.947 1.165 2.947 2.602s-1.32 2.602-2.947 2.602z"></path>
<path d="M2.947 25.278h41.263c1.628 0 2.947 1.165 2.947 2.602s-1.32 2.602-2.947 2.602h-41.263c-1.628 0-2.947-1.165-2.947-2.602s1.32-2.602 2.947-2.602z"></path>
<path d="M44.211 6.198h-41.263c-1.628 0-2.947-1.165-2.947-2.602s1.32-2.602 2.947-2.602h41.263c1.628 0 2.947 1.165 2.947 2.602s-1.32 2.602-2.947 2.602z"></path>
</symbol>
<symbol id="icon-down" viewBox="0 0 32 32">
<path d="M32 9.107c0.001 0.175-0.033 0.349-0.099 0.512s-0.164 0.31-0.288 0.435l-10.893 10.893c-0.619 0.621-1.355 1.113-2.165 1.449s-1.678 0.509-2.555 0.509c-0.877 0-1.745-0.173-2.555-0.509s-1.546-0.829-2.165-1.449l-10.893-10.893c-0.124-0.124-0.223-0.272-0.29-0.434s-0.102-0.337-0.102-0.512c0-0.176 0.035-0.35 0.102-0.512s0.166-0.31 0.29-0.434c0.124-0.124 0.272-0.223 0.434-0.29s0.337-0.102 0.512-0.102c0.176 0 0.35 0.035 0.512 0.102s0.31 0.166 0.434 0.29l10.893 10.893c0.75 0.749 1.767 1.17 2.827 1.17s2.077-0.421 2.827-1.17l10.893-10.893c0.124-0.125 0.271-0.224 0.434-0.292s0.337-0.103 0.513-0.103c0.176 0 0.35 0.035 0.513 0.103s0.31 0.167 0.434 0.292c0.124 0.125 0.221 0.272 0.288 0.435s0.1 0.336 0.099 0.512z"></path>
</symbol>
<symbol id="icon-icon-left" viewBox="0 0 32 32">
<path fill="#fff" style="fill: var(--color1, #fff)" d="M22.893 32c-0.175 0.001-0.349-0.033-0.512-0.099s-0.31-0.164-0.435-0.288l-10.893-10.893c-0.621-0.619-1.113-1.355-1.45-2.165s-0.509-1.678-0.509-2.555 0.173-1.745 0.509-2.555c0.336-0.81 0.829-1.546 1.45-2.165l10.893-10.893c0.124-0.124 0.272-0.223 0.434-0.29s0.337-0.102 0.512-0.102c0.176 0 0.35 0.035 0.512 0.102s0.31 0.166 0.434 0.29c0.124 0.124 0.223 0.272 0.29 0.434s0.102 0.337 0.102 0.512-0.035 0.35-0.102 0.512c-0.067 0.162-0.166 0.31-0.29 0.434l-10.893 10.893c-0.749 0.75-1.17 1.767-1.17 2.827s0.421 2.077 1.17 2.827l10.893 10.893c0.125 0.124 0.224 0.271 0.292 0.434s0.103 0.337 0.103 0.513c0 0.176-0.035 0.35-0.103 0.513s-0.167 0.31-0.292 0.434c-0.125 0.124-0.272 0.221-0.435 0.288s-0.336 0.1-0.512 0.099z"></path>
</symbol>

<symbol id="icon-right" viewBox="0 0 32 32">
<path fill="#fff" style="fill: var(--color1, #fff)" d="M9.333 32c-0.175 0.001-0.349-0.033-0.512-0.099s-0.31-0.164-0.435-0.288c-0.125-0.124-0.224-0.271-0.292-0.434s-0.103-0.337-0.103-0.513 0.035-0.35 0.103-0.513c0.068-0.163 0.167-0.31 0.292-0.434l10.893-10.893c0.749-0.75 1.17-1.767 1.17-2.827s-0.421-2.077-1.17-2.827l-10.893-10.893c-0.251-0.251-0.392-0.592-0.392-0.947s0.141-0.696 0.392-0.947c0.251-0.251 0.592-0.392 0.947-0.392s0.696 0.141 0.947 0.392l10.893 10.893c0.621 0.619 1.113 1.355 1.449 2.165s0.509 1.678 0.509 2.555-0.173 1.745-0.509 2.555c-0.336 0.81-0.829 1.546-1.449 2.165l-10.893 10.893c-0.125 0.124-0.272 0.221-0.435 0.288s-0.336 0.1-0.512 0.099z"></path>
</symbol>
</defs>
</svg>
