<svg xmlns="http://www.w3.org/2000/svg" aria-hidden="true">
<defs>
<symbol id="icon-Menu" viewBox="0 0 47 32" fill="none">
<path d="M44.211 18.34h-41.263c-1.628 0-2.947-1.165-2.947-2.602s1.32-2.602 2.947-2.602h41.263c1.628 0 2.947 1.165 2.947 2.602s-1.32 2.602-2.947 2.602z"></path>
<path d="M2.947 25.278h41.263c1.628 0 2.947 1.165 2.947 2.602s-1.32 2.602-2.947 2.602h-41.263c-1.628 0-2.947-1.165-2.947-2.602s1.32-2.602 2.947-2.602z"></path>
<path d="M44.211 6.198h-41.263c-1.628 0-2.947-1.165-2.947-2.602s1.32-2.602 2.947-2.602h41.263c1.628 0 2.947 1.165 2.947 2.602s-1.32 2.602-2.947 2.602z"></path>
</symbol>
</defs>
</svg>
